<?xml version="1.0" encoding="UTF-8" standalone="no" ?>
<!DOCTYPE svg PUBLIC "-//W3C//DTD SVG 1.1//EN" "http://www.w3.org/Graphics/SVG/1.1/DTD/svg11.dtd">
<svg xmlns="http://www.w3.org/2000/svg" xmlns:xlink="http://www.w3.org/1999/xlink" version="1.1" width="1080" height="1080" viewBox="0 0 1080 1080" xml:space="preserve">
<desc>Created with Fabric.js 5.2.4</desc>
<defs>
</defs>
<rect x="0" y="0" width="100%" height="100%" fill="transparent"></rect>
<g transform="matrix(1 0 0 1 540 540)" id="fa4b3730-efe0-4078-a748-45c363b08df5"  >
<rect style="stroke: none; stroke-width: 1; stroke-dasharray: none; stroke-linecap: butt; stroke-dashoffset: 0; stroke-linejoin: miter; stroke-miterlimit: 4; fill: rgb(255,255,255); fill-rule: nonzero; opacity: 1; visibility: hidden;" vector-effect="non-scaling-stroke"  x="-540" y="-540" rx="0" ry="0" width="1080" height="1080" />
</g>
<g transform="matrix(1 0 0 1 540 540)" id="9167891e-667d-4800-bd4b-515d8fb86bed"  >
</g>
<g transform="matrix(1 0 0 1 540 540)"  >
<rect style="stroke: none; stroke-width: 1; stroke-dasharray: none; stroke-linecap: butt; stroke-dashoffset: 0; stroke-linejoin: miter; stroke-miterlimit: 4; fill: rgb(255,255,255); fill-rule: nonzero; opacity: 1; visibility: hidden;" vector-effect="non-scaling-stroke"  x="-540" y="-540" rx="0" ry="0" width="1080" height="1080" />
</g>
<g transform="matrix(1 0 0 1 864.84 713.88)"  >
<path style="stroke: none; stroke-width: 1; stroke-dasharray: none; stroke-linecap: butt; stroke-dashoffset: 0; stroke-linejoin: miter; stroke-miterlimit: 4; fill: rgb(242,242,242); fill-opacity: 0; fill-rule: nonzero; opacity: 1;" vector-effect="non-scaling-stroke"  transform=" translate(-924.84, -623.85)" d="M 831.09242 704.18737 C 819.95409 694.77557 813.18849 679.9077 814.96277 665.43371 C 816.73705 650.9597200000001 827.72635 637.65371 841.98108 634.58007 C 856.23581 631.5064299999999 872.48523 640.01472 876.8148600000001 653.93947 C 879.19766 627.0931 881.9434000000001 599.1219 896.2166500000001 576.25971 C 909.1407200000001 555.55856 931.5254500000001 540.74607 955.7854500000001 538.09614 C 980.0454500000001 535.44621 1005.5881 545.45473 1020.7181700000001 564.60285 C 1035.8482400000003 583.7509699999999 1039.5527800000002 611.58834 1028.9560700000002 633.57196 C 1021.1498400000002 649.76652 1006.7680700000002 661.81872 991.6994700000001 671.6238 C 943.0075406330112 703.0406090384128 884.6079198395412 715.8165310559607 827.2457100000001 707.6008899999999 Z" stroke-linecap="round" />
</g>
<g transform="matrix(1 0 0 1 254.2 681.34)"  >
<path style="stroke: none; stroke-width: 1; stroke-dasharray: none; stroke-linecap: butt; stroke-dashoffset: 0; stroke-linejoin: miter; stroke-miterlimit: 4; fill: rgb(242,242,242); fill-opacity: 0; fill-rule: nonzero; opacity: 1;" vector-effect="non-scaling-stroke"  transform=" translate(-316.3, -591.32)" d="M 445.06712 701.63014 C 460.36562 688.70302 469.65812 668.28199 467.2212 648.40197 C 464.78428 628.5219500000001 449.69041 610.24609 430.11154 606.02448 C 410.53267 601.8028700000001 388.21409 613.48897 382.26734 632.6146200000001 C 378.99456 595.7411300000001 375.22328 557.32267 355.61897 525.92145 C 337.86775 497.48845000000006 307.12230999999997 477.14345000000003 273.8012 473.50377000000003 C 240.48009000000002 469.86409000000003 205.39724999999999 483.61077 184.61608999999999 509.91077 C 163.83492999999999 536.21077 158.74675 574.44536 173.30132999999998 604.63986 C 184.02317999999997 626.8831 203.77660999999998 643.43679 224.47328 656.90408 C 290.50282 699.86938 372.4124 717.78851 450.35058 706.31862" stroke-linecap="round" />
</g>
<g transform="matrix(1 0 0 1 547 539.45)"  >
<path style="stroke: none; stroke-width: 1; stroke-dasharray: none; stroke-linecap: butt; stroke-dashoffset: 0; stroke-linejoin: miter; stroke-miterlimit: 4; fill: rgb(242,242,242); fill-rule: nonzero; opacity: 0.36;" vector-effect="non-scaling-stroke"  transform=" translate(-607, -449.43)" d="M 789.5 708.93073 L 424.5 708.93073 L 424.5 334.43073000000004 C 424.5 254.75300000000004 489.32227 189.93073000000004 568.99976 189.93073000000004 L 645.00025 189.93073000000004 C 724.6777400000001 189.93073000000004 789.5 254.75300000000004 789.5 334.43073000000004 Z" stroke-linecap="round" />
</g>
<g transform="matrix(1 0 0 1 509 539.45)"  >
<path style="stroke: none; stroke-width: 1; stroke-dasharray: none; stroke-linecap: butt; stroke-dashoffset: 0; stroke-linejoin: miter; stroke-miterlimit: 4; fill: rgb(204,204,204); fill-rule: nonzero; opacity: 1;" vector-effect="non-scaling-stroke"  transform=" translate(-569, -449.43)" d="M 713.5 708.93073 L 424.5 708.93073 L 424.5 334.43073000000004 C 424.4202259628627 303.90006910217 434.08799848905346 274.1410030550413 452.09571 249.48639000000003 C 452.75952 248.58161000000004 453.42163 247.68854000000002 454.10449 246.80524000000003 C 462.81468359139234 235.38129603376368 473.18010677290397 225.3204133914677 484.85864000000004 216.95466000000002 C 485.51831 216.47466000000003 486.18064 216.00300000000001 486.85278999999997 215.53132000000002 C 496.62499970486135 208.76873640141875 507.1959232407618 203.24045901348654 518.32495 199.07232000000002 C 518.9858399999999 198.82183 519.65869 198.57086 520.3315399999999 198.33013000000003 C 530.3967107105386 194.73820520866704 540.8304116999731 192.27774757987802 551.4399399999999 190.99420000000006 C 552.0976599999999 190.90435000000002 552.7729399999998 190.83404000000004 553.4482399999998 190.76373000000004 C 563.7872641881984 189.65826000944475 574.2146858118011 189.65826000944475 584.5537099999997 190.76373000000004 C 585.2270499999998 190.83404000000004 585.9023499999998 190.90435000000005 586.5678699999997 190.99517000000003 C 597.1746687104726 192.27880169601244 607.6056560512957 194.73894496598754 617.6682099999997 198.33017000000004 C 618.3413099999997 198.57090000000005 619.0142099999997 198.82187000000005 619.6769999999997 199.07285000000005 C 630.6687313046648 203.18840992079058 641.1152581023713 208.63419361442283 650.7834499999997 215.28867000000008 C 651.4550799999997 215.75010000000006 652.1274499999997 216.22178000000005 652.7897999999997 216.69345000000004 C 659.3359135650945 221.36619617006684 665.4846841691552 226.57191093890904 671.1733399999997 232.25745000000003 C 675.7352404923504 236.81786808740455 679.9862313815528 241.67903081772343 683.8977099999997 246.80823000000004 C 684.5783699999997 247.68860000000004 685.2404799999997 248.58167000000003 685.9030799999997 249.48499000000004 C 703.9114744374982 274.13985701927476 713.5796862830831 303.8994609787008 713.5 334.43072999999987 Z" stroke-linecap="round" />
</g>
<g transform="matrix(1 0 0 1 630 615.45)"  >
<circle style="stroke: none; stroke-width: 1; stroke-dasharray: none; stroke-linecap: butt; stroke-dashoffset: 0; stroke-linejoin: miter; stroke-miterlimit: 4; fill: rgb(0,117,194); fill-rule: nonzero; opacity: 1;" vector-effect="non-scaling-stroke"  cx="0" cy="0" r="16" />
</g>
<g transform="matrix(1 0 0 1 690.55 764.09)"  >
<polygon style="stroke: none; stroke-width: 1; stroke-dasharray: none; stroke-linecap: butt; stroke-dashoffset: 0; stroke-linejoin: miter; stroke-miterlimit: 4; fill: rgb(255,184,184); fill-rule: nonzero; opacity: 1;" vector-effect="non-scaling-stroke"  points="9.05,23.64 -3.21,23.64 -9.05,-23.64 9.05,-23.64 9.05,23.64 " />
</g>
<g transform="matrix(1 0 0 1 682.96 791.67)"  >
<path style="stroke: none; stroke-width: 1; stroke-dasharray: none; stroke-linecap: butt; stroke-dashoffset: 0; stroke-linejoin: miter; stroke-miterlimit: 4; fill: rgb(47,46,65); fill-rule: nonzero; opacity: 1;" vector-effect="non-scaling-stroke"  transform=" translate(-577.96, -511.72)" d="M 573.58165 504.27982 L 597.2254899999999 504.27982 L 597.2254899999999 519.16669 L 558.69478 519.16669 L 558.69478 519.16669 C 558.69478 515.2184439417375 560.2632146396992 511.4319077628801 563.0550462012897 508.6400762012896 C 565.8468777628801 505.84824463969915 569.6334139417376 504.27981 573.58166 504.27981 Z" stroke-linecap="round" />
</g>
<g transform="matrix(1 0 0 1 751.55 764.09)"  >
<polygon style="stroke: none; stroke-width: 1; stroke-dasharray: none; stroke-linecap: butt; stroke-dashoffset: 0; stroke-linejoin: miter; stroke-miterlimit: 4; fill: rgb(255,184,184); fill-rule: nonzero; opacity: 1;" vector-effect="non-scaling-stroke"  points="9.05,23.64 -3.21,23.64 -9.05,-23.64 9.05,-23.64 9.05,23.64 " />
</g>
<g transform="matrix(1 0 0 1 743.96 791.67)"  >
<path style="stroke: none; stroke-width: 1; stroke-dasharray: none; stroke-linecap: butt; stroke-dashoffset: 0; stroke-linejoin: miter; stroke-miterlimit: 4; fill: rgb(47,46,65); fill-rule: nonzero; opacity: 1;" vector-effect="non-scaling-stroke"  transform=" translate(-638.96, -511.72)" d="M 634.58165 504.27982 L 658.2254899999999 504.27982 L 658.2254899999999 519.16669 L 619.69478 519.16669 L 619.69478 519.16669 C 619.69478 515.2184439417375 621.2632146396992 511.4319077628801 624.0550462012897 508.6400762012896 C 626.8468777628801 505.84824463969915 630.6334139417376 504.27981 634.58166 504.27981 Z" stroke-linecap="round" />
</g>
<g transform="matrix(1 0 0 1 670.51 555.66)"  >
<path style="stroke: none; stroke-width: 1; stroke-dasharray: none; stroke-linecap: butt; stroke-dashoffset: 0; stroke-linejoin: miter; stroke-miterlimit: 4; fill: rgb(255,184,184); fill-rule: nonzero; opacity: 1;" vector-effect="non-scaling-stroke"  transform=" translate(-730.52, -465.64)" d="M 698.09758 528.60035 C 696.3121550922923 525.9697980065323 695.7835987742733 522.6835241304598 696.6541341722989 519.6257939245417 C 697.5246695703245 516.5680637186235 699.704873492846 514.0529735361257 702.6081 512.75728 L 744.28387 397.89061000000004 L 764.791 409.082 L 717.20624 518.85271 C 719.101246137319 523.9869520299244 716.856640736651 529.7271218135161 711.9815101522963 532.2140056603834 C 707.1063795679418 534.7008895072506 701.141679858915 533.148420528397 698.09758 528.60035 Z" stroke-linecap="round" />
</g>
<g transform="matrix(1 0 0 1 754.55 572.08)"  >
<path style="stroke: none; stroke-width: 1; stroke-dasharray: none; stroke-linecap: butt; stroke-dashoffset: 0; stroke-linejoin: miter; stroke-miterlimit: 4; fill: rgb(255,184,184); fill-rule: nonzero; opacity: 1;" vector-effect="non-scaling-stroke"  transform=" translate(-814.55, -482.05)" d="M 814.33644 550.1843 C 811.578356903174 548.6029904145912 809.6623549943647 545.8812392584863 809.103992525844 542.751415984298 C 808.5456300573231 539.6215927101098 809.4022636017753 536.405201620575 811.44339 533.96771 L 798.53263 412.4583 L 821.87039 413.52452 L 827.23606 533.045 C 831.1904223828674 536.8284408575765 831.6900350098255 542.9715723092681 828.3990005430534 547.3442715575968 C 825.1079660762813 551.7169708059255 819.0665283977686 552.9370968594246 814.3364399999999 550.1843399999999 Z" stroke-linecap="round" />
</g>
<g transform="matrix(1 0 0 1 717.11 442.07)"  >
<circle style="stroke: none; stroke-width: 1; stroke-dasharray: none; stroke-linecap: butt; stroke-dashoffset: 0; stroke-linejoin: miter; stroke-miterlimit: 4; fill: rgb(255,184,184); fill-rule: nonzero; opacity: 1;" vector-effect="non-scaling-stroke"  cx="0" cy="0" r="24.56103" />
</g>
<g transform="matrix(1 0 0 1 721.02 544.14)"  >
<path style="stroke: none; stroke-width: 1; stroke-dasharray: none; stroke-linecap: butt; stroke-dashoffset: 0; stroke-linejoin: miter; stroke-miterlimit: 4; fill: rgb(0,117,194); fill-rule: nonzero; opacity: 1;" vector-effect="non-scaling-stroke"  transform=" translate(-781.03, -454.11)" d="M 814.17958 522.54937 L 740.13271 522.54937 L 740.22182 521.9731999999999 C 740.35488 521.11187 753.4186 435.53419999999994 743.78359 407.53719999999987 C 741.7812610156064 401.83926814631644 744.3992872592406 395.5486255673101 749.85292 392.95369999999986 L 749.8531700000001 392.95369999999986 C 763.6249000000001 386.4683499999999 790.0606900000001 378.4825099999999 812.3731700000001 397.86287999999985 C 819.0300266763331 403.7400717488827 822.5340712506593 412.40658550292306 821.8326400000001 421.25887999999986 Z" stroke-linecap="round" />
</g>
<g transform="matrix(1 0 0 1 682.61 511.07)"  >
<path style="stroke: none; stroke-width: 1; stroke-dasharray: none; stroke-linecap: butt; stroke-dashoffset: 0; stroke-linejoin: miter; stroke-miterlimit: 4; fill: rgb(0,117,194); fill-rule: nonzero; opacity: 1;" vector-effect="non-scaling-stroke"  transform=" translate(-742.6, -421.05)" d="M 754.35439 448.1812 L 721.01772 441.418 L 736.64394 404.38822 C 738.5910057795626 396.9206211143606 746.2148521798764 392.43780170572734 753.687131162392 394.3668286817446 C 761.1594101449075 396.29585565776193 765.6606269233399 403.9088544952474 763.7496500000001 411.38577 Z" stroke-linecap="round" />
</g>
<g transform="matrix(1 0 0 1 752.47 518.63)"  >
<path style="stroke: none; stroke-width: 1; stroke-dasharray: none; stroke-linecap: butt; stroke-dashoffset: 0; stroke-linejoin: miter; stroke-miterlimit: 4; fill: rgb(0,117,194); fill-rule: nonzero; opacity: 1;" vector-effect="non-scaling-stroke"  transform=" translate(-812.47, -428.61)" d="M 797.05043 460.73882 L 795.04628 414.79740999999996 C 793.52651 406.16117999999994 798.47036 397.99711999999994 806.07363 396.66265 C 813.6791 395.33306 821.10537 401.32281 822.63198 410.02251 L 830.16498 452.95025 Z" stroke-linecap="round" />
</g>
<g transform="matrix(1 0 0 1 719.68 690.07)"  >
<path style="stroke: none; stroke-width: 1; stroke-dasharray: none; stroke-linecap: butt; stroke-dashoffset: 0; stroke-linejoin: miter; stroke-miterlimit: 4; fill: rgb(47,46,65); fill-rule: nonzero; opacity: 1;" vector-effect="non-scaling-stroke"  transform=" translate(-779.68, -600.05)" d="M 811.71606 517.04933 C 823.6306099999999 562.4260400000001 824.9304199999999 620.11873 821.71606 683.04933 L 805.71606 681.04933 L 776.71606 561.04933 L 760.71606 683.04933 L 742.71606 682.04933 C 737.33862 616.0196100000001 732.1027799999999 559.33406 740.71606 522.04933 Z" stroke-linecap="round" />
</g>
<g transform="matrix(1 0 0 1 716.32 434.88)"  >
<path style="stroke: none; stroke-width: 1; stroke-dasharray: none; stroke-linecap: butt; stroke-dashoffset: 0; stroke-linejoin: miter; stroke-miterlimit: 4; fill: rgb(47,46,65); fill-rule: nonzero; opacity: 1;" vector-effect="non-scaling-stroke"  transform=" translate(-776.32, -344.86)" d="M 793.2891 371.03474 C 788.7071 375.91553 780.1977899999999 373.29541 779.60075 366.62757 C 779.5539256914763 366.10989422577995 779.5573215268413 365.5889014132572 779.6108899999999 365.07187999999996 C 779.91915 362.11830999999995 781.6254999999999 359.43681999999995 781.2167599999999 356.31827999999996 C 781.1242449150094 355.54213042683676 780.8350739981433 354.8024592329789 780.3766499999999 354.16936 C 776.7254099999999 349.28003 768.15438 356.35623 764.70845 351.93007 C 762.5954499999999 349.21607 765.07925 344.94294 763.4578 341.90956 C 761.3177400000001 337.90598 754.9789900000001 339.88096 751.00392 337.6884 C 746.58117 335.24892 746.8457 328.46316 749.75706 324.33571 C 753.30758 319.30212 759.53278 316.6162 765.68042 316.2291 C 771.82806 315.84200000000004 777.93334 317.50385 783.67271 319.74055000000004 C 790.1938 322.28189000000003 796.66039 325.79406000000006 800.6733800000001 331.52808000000005 C 805.5535900000001 338.50125 806.0232400000001 347.87601000000006 803.5825500000001 356.02982000000003 C 802.09785 360.98987 797.03077 367.04906 793.2891 371.03474 Z" stroke-linecap="round" />
</g>
<g transform="matrix(1 0 0 1 575.83 798.4)"  >
<path style="stroke: none; stroke-width: 1; stroke-dasharray: none; stroke-linecap: butt; stroke-dashoffset: 0; stroke-linejoin: miter; stroke-miterlimit: 4; fill: rgb(0,117,194); fill-rule: nonzero; opacity: 1;" vector-effect="non-scaling-stroke"  transform=" translate(-635.83, -708.38)" d="M 1004.98163 709.57417 L 266.68763 709.57417 C 266.03137998123486 709.5722681715289 265.50039063400885 709.0397377745319 265.50039063400885 708.3834850000001 C 265.50039063400885 707.7272322254681 266.03137998123486 707.1947018284711 266.68763 707.1928 L 1004.98163 707.1928 C 1005.6378800187651 707.1947018284711 1006.1688693659912 707.7272322254681 1006.1688693659912 708.383485 C 1006.1688693659912 709.0397377745319 1005.6378800187651 709.5722681715289 1004.98163 709.57417 Z" stroke-linecap="round" />
</g>
<g transform="matrix(1 0 0 1 508.5 539.5)"  >
<path style="stroke: none; stroke-width: 0; stroke-dasharray: none; stroke-linecap: butt; stroke-dashoffset: 0; stroke-linejoin: miter; stroke-miterlimit: 4; fill: rgb(255,255,255); fill-rule: nonzero; opacity: 0.7;" vector-effect="non-scaling-stroke"  transform=" translate(-569, -448.93)" d="M 634 600.43073 L 504 600.43073 C 500.4352434041069 600.4499193847938 497.5275608537367 597.5801217013761 497.5 594.0154200000001 L 497.5 303.846 C 497.5275608537367 300.28129829862394 500.4352434041069 297.4115006152062 504 297.43069 L 634 297.43069 C 637.5647565958931 297.4115006152062 640.4724391462632 300.28129829862394 640.5 303.846 L 640.5 594.01542 C 640.4724391462634 597.580121701376 637.5647565958931 600.4499193847938 634 600.43073 Z" stroke-linecap="round" />
</g>
<g transform="matrix(1 0 0 1 509 482.34)"  >
<rect style="stroke: none; stroke-width: 1; stroke-dasharray: none; stroke-linecap: butt; stroke-dashoffset: 0; stroke-linejoin: miter; stroke-miterlimit: 4; fill: rgb(204,204,204); fill-rule: nonzero; opacity: 1;" vector-effect="non-scaling-stroke"  x="-71.5" y="-1" rx="0" ry="0" width="143" height="2" />
</g>
<g transform="matrix(1 0 0 1 509.5 596.45)"  >
<rect style="stroke: none; stroke-width: 1; stroke-dasharray: none; stroke-linecap: butt; stroke-dashoffset: 0; stroke-linejoin: miter; stroke-miterlimit: 4; fill: rgb(204,204,204); fill-rule: nonzero; opacity: 1;" vector-effect="non-scaling-stroke"  x="-71.5" y="-1" rx="0" ry="0" width="143" height="2" />
</g>
<g transform="matrix(1 0 0 1 483.5 539.45)"  >
<rect style="stroke: none; stroke-width: 1; stroke-dasharray: none; stroke-linecap: butt; stroke-dashoffset: 0; stroke-linejoin: miter; stroke-miterlimit: 4; fill: rgb(204,204,204); fill-rule: nonzero; opacity: 1;" vector-effect="non-scaling-stroke"  x="-1" y="-152" rx="0" ry="0" width="2" height="304" />
</g>
<g transform="matrix(1 0 0 1 540 540)"  >
<rect style="stroke: none; stroke-width: 1; stroke-dasharray: none; stroke-linecap: butt; stroke-dashoffset: 0; stroke-linejoin: miter; stroke-miterlimit: 4; fill: rgb(204,204,204); fill-rule: nonzero; opacity: 1;" vector-effect="non-scaling-stroke"  x="-1" y="-152" rx="0" ry="0" width="2" height="304" />
</g>
<g transform="matrix(0 0 0 0 0 0)"  >
<g style=""   >
</g>
</g>
<g transform="matrix(0 0 0 0 0 0)"  >
<g style=""   >
</g>
</g>
<g transform="matrix(0 0 0 0 0 0)"  >
<g style=""   >
</g>
</g>
<g transform="matrix(0 0 0 0 0 0)"  >
<g style=""   >
</g>
</g>
</svg>