<?xml version="1.0" encoding="UTF-8" standalone="no" ?>
<!DOCTYPE svg PUBLIC "-//W3C//DTD SVG 1.1//EN" "http://www.w3.org/Graphics/SVG/1.1/DTD/svg11.dtd">
<svg xmlns="http://www.w3.org/2000/svg" xmlns:xlink="http://www.w3.org/1999/xlink" version="1.1" width="1080" height="1080" viewBox="0 0 1080 1080" xml:space="preserve">
<desc>Created with Fabric.js 5.2.4</desc>
<defs>
</defs>
<rect x="0" y="0" width="100%" height="100%" fill="transparent"></rect>
<g transform="matrix(1 0 0 1 540 540)" id="f28b12cb-9171-45d7-9eec-61a9650233f2"  >
</g>
<g transform="matrix(1 0 0 1 540 540)" id="72d3e81d-7a94-4feb-9e07-0867db49fa18"  >
<rect style="stroke: none; stroke-width: 1; stroke-dasharray: none; stroke-linecap: butt; stroke-dashoffset: 0; stroke-linejoin: miter; stroke-miterlimit: 4; fill: rgb(255,255,255); fill-rule: nonzero; opacity: 1; visibility: hidden;" vector-effect="non-scaling-stroke"  x="-540" y="-540" rx="0" ry="0" width="1080" height="1080" />
</g>
<g transform="matrix(1 0 0 1 540 745.03)"  >
<path style="stroke: none; stroke-width: 0; stroke-dasharray: none; stroke-linecap: butt; stroke-dashoffset: 0; stroke-linejoin: miter; stroke-miterlimit: 4; fill: rgb(0,117,194); fill-rule: nonzero; opacity: 1;" vector-effect="non-scaling-stroke"  transform=" translate(-275.3, -411.25)" d="M 550.59998 411.25495 C 550.59998 411.91492 550.06995 412.44495 549.4099799999999 412.44495 L 1.19 412.44495 C 0.5299999999999999 412.44495 0 411.91492 0 411.25495 C 0 410.59498 0.53 410.06495 1.19 410.06495 L 549.40997 410.06495 C 550.0699400000001 410.06495 550.5999700000001 410.59498 550.5999700000001 411.25495 Z" stroke-linecap="round" />
</g>
<g transform="matrix(1 0 0 1 540 397)"  >
<path style="stroke: rgb(186,183,201); stroke-width: 2; stroke-dasharray: none; stroke-linecap: round; stroke-dashoffset: 0; stroke-linejoin: round; stroke-miterlimit: 4; fill: rgb(28,28,28); fill-opacity: 0; fill-rule: nonzero; opacity: 1;" vector-effect="non-scaling-stroke"  transform=" translate(-275.37, -64.27)" d="M 436.65881 84.78436 L 114.07564 84.78436 C 109.61711000000001 84.78436 105.98978000000001 81.15703 105.98978000000001 76.69850000000001 L 105.98978000000001 51.84579000000001 C 105.98978000000001 47.38726000000001 109.61711000000001 43.75993000000001 114.07564 43.75993000000001 L 436.65881 43.75993000000001 C 441.11734 43.75993000000001 444.74467000000004 47.38726000000001 444.74467000000004 51.84579000000001 L 444.74467000000004 76.69850000000001 C 444.74467000000004 81.15703 441.11734000000007 84.78436 436.65881 84.78436 Z" stroke-linecap="round" />
</g>
<g transform="matrix(1 0 0 1 540.07 551.25)"  >
<path style="stroke: rgb(186,183,201); stroke-width: 2; stroke-dasharray: none; stroke-linecap: round; stroke-dashoffset: 0; stroke-linejoin: round; stroke-miterlimit: 4; fill: rgb(28,28,28); fill-opacity: 0; fill-rule: nonzero; opacity: 1;" vector-effect="non-scaling-stroke"  transform=" translate(-275.37, -217.48)" d="M 436.65881 237.99009 L 114.07564 237.99009 C 109.61711000000001 237.99009 105.98978000000001 234.36276 105.98978000000001 229.90423 L 105.98978000000001 205.05152 C 105.98978000000001 200.59299000000001 109.61711000000001 196.96566 114.07564 196.96566 L 436.65881 196.96566 C 441.11734 196.96566 444.74467000000004 200.59299000000001 444.74467000000004 205.05152 L 444.74467000000004 229.90423 C 444.74467000000004 234.36276 441.11734000000007 237.99009 436.65881 237.99009 Z" stroke-linecap="round" />
</g>
<g transform="matrix(1 0 0 1 425.07 661.25)"  >
<path style="stroke: none; stroke-width: 0; stroke-dasharray: none; stroke-linecap: butt; stroke-dashoffset: 0; stroke-linejoin: miter; stroke-miterlimit: 4; fill: rgb(0,117,194); fill-rule: nonzero; opacity: 1;" vector-effect="non-scaling-stroke"  transform=" translate(-160.37, -327.48)" d="M 207.65881 347.99009 L 113.07563999999999 347.99009 C 108.61711 347.99009 104.98978 344.36276000000004 104.98978 339.90423 L 104.98978 315.05152 C 104.98978 310.59299 108.61711 306.96565999999996 113.07563999999999 306.96565999999996 L 207.65881 306.96565999999996 C 212.11733999999998 306.96565999999996 215.74466999999999 310.59298999999993 215.74466999999999 315.05152 L 215.74466999999999 339.90423 C 215.74466999999999 344.36276 212.11733999999998 347.99009 207.65881 347.99009 Z" stroke-linecap="round" />
</g>
<g transform="matrix(1 0 0 1 406.77 334.78)"  >
<line style="stroke: rgb(186,183,201); stroke-width: 2; stroke-dasharray: none; stroke-linecap: round; stroke-dashoffset: 0; stroke-linejoin: round; stroke-miterlimit: 4; fill: none; fill-rule: nonzero; opacity: 1;" vector-effect="non-scaling-stroke"  x1="-35.374970000000005" y1="0" x2="35.374970000000005" y2="0" />
</g>
<g transform="matrix(1 0 0 1 437.11 487.98)"  >
<line style="stroke: rgb(186,183,201); stroke-width: 2; stroke-dasharray: none; stroke-linecap: round; stroke-dashoffset: 0; stroke-linejoin: round; stroke-miterlimit: 4; fill: none; fill-rule: nonzero; opacity: 1;" vector-effect="non-scaling-stroke"  x1="-65.712365" y1="0" x2="65.712365" y2="0" />
</g>
<g transform="matrix(0.84 -0.54 0.54 0.84 661.82 712.47)"  >
<rect style="stroke: none; stroke-width: 0; stroke-dasharray: none; stroke-linecap: butt; stroke-dashoffset: 0; stroke-linejoin: miter; stroke-miterlimit: 4; fill: rgb(241,161,164); fill-rule: nonzero; opacity: 1;" vector-effect="non-scaling-stroke"  x="-6.6" y="-9.365" rx="0" ry="0" width="13.2" height="18.73" />
</g>
<g transform="matrix(1 0 0 1 619.91 483.46)"  >
<polygon style="stroke: none; stroke-width: 0; stroke-dasharray: none; stroke-linecap: butt; stroke-dashoffset: 0; stroke-linejoin: miter; stroke-miterlimit: 4; fill: rgb(241,161,164); fill-rule: nonzero; opacity: 1;" vector-effect="non-scaling-stroke"  points="7.14,5.42 -6.92,10.22 -7.14,-10.08 5.65,-10.22 7.14,5.42 " />
</g>
<g transform="matrix(1 0 0 1 614.41 464.93)"  >
<circle style="stroke: none; stroke-width: 0; stroke-dasharray: none; stroke-linecap: butt; stroke-dashoffset: 0; stroke-linejoin: miter; stroke-miterlimit: 4; fill: rgb(241,161,164); fill-rule: nonzero; opacity: 1;" vector-effect="non-scaling-stroke"  cx="0" cy="0" r="14.05406" />
</g>
<g transform="matrix(1 0 0 1 619.55 461)"  >
<path style="stroke: none; stroke-width: 0; stroke-dasharray: none; stroke-linecap: butt; stroke-dashoffset: 0; stroke-linejoin: miter; stroke-miterlimit: 4; fill: rgb(47,46,67); fill-rule: nonzero; opacity: 1;" vector-effect="non-scaling-stroke"  transform=" translate(-354.85, -127.22)" d="M 353.55997 129.72413 C 351.21223000000003 129.67873 349.63626 127.3245 348.69585 125.15835 C 347.75545 123.00516 346.78911 120.51474 344.60351 119.6392 C 342.81351 118.92579 339.72643000000005 123.90665 338.29961000000003 122.60956 C 336.81443 121.25410000000001 338.16989 114.17194 339.71993000000003 112.8943 C 341.26997000000006 111.61666 343.39721000000003 111.34427 345.39473000000004 111.22104 C 350.29127000000005 110.94217 355.21377 111.27941 360.02599000000004 112.23277 C 362.99634000000003 112.81646 366.07047000000006 113.71794 368.23013000000003 115.8387 C 370.97350000000006 118.53017 371.71283000000005 122.62901000000001 371.94632 126.46194 C 372.19277 130.38566 372.00469000000004 134.49746 370.13686 137.96071 C 368.26254 141.41748 364.29992 143.99222 360.45403 143.16208 C 360.04544 141.08023 360.40863 138.94651 360.53834 136.81927000000002 C 360.66806 134.705 360.47997 132.42211 359.16991 130.74885 C 357.85985000000005 129.07559 355.09702000000004 128.44002 353.61184000000003 129.95114" stroke-linecap="round" />
</g>
<g transform="matrix(1 0 0 1 638.99 472.52)"  >
<path style="stroke: none; stroke-width: 0; stroke-dasharray: none; stroke-linecap: butt; stroke-dashoffset: 0; stroke-linejoin: miter; stroke-miterlimit: 4; fill: rgb(47,46,67); fill-rule: nonzero; opacity: 1;" vector-effect="non-scaling-stroke"  transform=" translate(-374.29, -138.74)" d="M 370.90216 134.40016 C 372.29654 133.356 373.96331 132.47397 375.69495 132.66854 C 377.56927 132.86959000000002 379.16469 134.40016 379.66407 136.2161 C 380.16344999999995 138.03204000000002 379.64461 140.04254 378.50964999999997 141.54717000000002 C 377.37468999999993 143.05180000000004 375.669 144.05057000000002 373.85306999999995 144.56292000000002 C 372.8024199999999 144.86126000000002 371.6544799999999 144.98447000000002 370.64273999999995 144.56292000000002 C 369.15755999999993 143.94031 368.34039999999993 142.06600000000003 368.90462999999994 140.55489000000003" stroke-linecap="round" />
</g>
<g transform="matrix(1 0 0 1 594.01 566.36)"  >
<path style="stroke: none; stroke-width: 0; stroke-dasharray: none; stroke-linecap: butt; stroke-dashoffset: 0; stroke-linejoin: miter; stroke-miterlimit: 4; fill: rgb(241,161,164); fill-rule: nonzero; opacity: 1;" vector-effect="non-scaling-stroke"  transform=" translate(-329.31, -232.58)" d="M 318.60318 267.17111 C 317.72116 271.79527 319.47873 275.99784999999997 322.53988 276.54912 C 325.59454 277.10039 328.7919 273.79279 329.68041 269.16863 C 330.06305 267.32675 329.97874 265.42002 329.43396 263.61056 L 340.24528000000004 191.12872000000002 L 325.67888000000005 188.56047 L 320.88609 262.07999 C 319.71222 263.58463 318.92748 265.32923 318.6032 267.19056 L 318.6032 267.19056 L 318.6032 267.1711 L 318.60318 267.1711 Z" stroke-linecap="round" />
</g>
<g transform="matrix(1 0 0 1 601.02 505.99)"  >
<path style="stroke: none; stroke-width: 0; stroke-dasharray: none; stroke-linecap: butt; stroke-dashoffset: 0; stroke-linejoin: miter; stroke-miterlimit: 4; fill: rgb(0,117,194); fill-rule: nonzero; opacity: 1;" vector-effect="non-scaling-stroke"  transform=" translate(-336.32, -172.21)" d="M 348.03434 150.58794 L 338.11154999999997 150.69819 C 331.10722999999996 151.83315000000002 329.24587999999994 155.60122 327.73476999999997 162.52773000000002 C 325.41945 173.09259000000003 322.46205999999995 187.17258 323.08466999999996 187.36716 C 324.07694999999995 187.69143000000003 341.04947999999996 195.44807 349.64275999999995 193.52838000000003 L 348.04083999999995 150.58796 L 348.03434999999996 150.58796 Z" stroke-linecap="round" />
</g>
<g transform="matrix(1 -0.01 0.01 1 618.42 724.18)"  >
<rect style="stroke: none; stroke-width: 0; stroke-dasharray: none; stroke-linecap: butt; stroke-dashoffset: 0; stroke-linejoin: miter; stroke-miterlimit: 4; fill: rgb(241,161,164); fill-rule: nonzero; opacity: 1;" vector-effect="non-scaling-stroke"  x="-6.6" y="-9.365" rx="0" ry="0" width="13.2" height="18.73" />
</g>
<g transform="matrix(1 0 0 1 606.97 734.34)"  >
<path style="stroke: none; stroke-width: 0; stroke-dasharray: none; stroke-linecap: butt; stroke-dashoffset: 0; stroke-linejoin: miter; stroke-miterlimit: 4; fill: rgb(47,46,67); fill-rule: nonzero; opacity: 1;" vector-effect="non-scaling-stroke"  transform=" translate(-342.27, -400.56)" d="M 334.46021 411.32408 C 333.06583 411.34355999999997 331.84007 411.32408 330.90615 411.24626 C 327.39101000000005 410.96739 324.02505 408.4121 322.31937000000005 406.92045 C 321.55409000000003 406.25243 321.30114000000003 405.16287 321.68378000000007 404.22896000000003 L 321.68378000000007 404.22896000000003 C 321.9561800000001 403.56094 322.51392000000004 403.0486 323.2143500000001 402.83456 L 332.4561700000001 400.08472 L 347.3533400000001 389.79225 L 347.5219700000001 390.09060000000005 C 347.58683000000013 390.20084 349.09147000000013 392.84044000000006 349.6038100000001 394.6304400000001 C 349.79837000000015 395.3114100000001 349.7594600000001 395.8756400000001 349.4740900000001 396.3166500000001 C 349.2795300000001 396.6214500000001 349.00713000000013 396.8030600000001 348.7866300000001 396.9133000000001 C 349.0590300000001 397.1921700000001 349.9151000000001 397.7629000000001 352.5482100000001 398.15201000000013 C 356.3746500000001 398.72274000000016 357.1464200000001 394.74064000000016 357.1723700000001 394.57201000000015 L 357.19832000000014 394.43580000000014 L 357.3085800000001 394.35798000000017 C 359.1180400000001 393.1581800000002 360.22705000000013 392.61987000000016 360.6161800000001 392.73012000000017 C 360.8626300000001 392.7949600000002 361.2582400000001 392.9181800000002 362.4645500000001 403.7100500000002 C 362.57481000000007 404.0473100000002 363.3660400000001 406.5247700000002 362.8731400000001 408.9114300000002 C 362.3413300000001 411.5056300000002 351.0241600000001 410.73385000000025 348.7672000000001 410.5587300000002 C 348.7023400000001 410.5652200000002 340.24526000000014 411.26567000000017 334.4472500000001 411.3240100000002 L 334.4667100000001 411.3240100000002 L 334.4602200000001 411.3240100000002 L 334.4602200000001 411.32409000000024 Z" stroke-linecap="round" />
</g>
<g transform="matrix(1 0 0 1 660.68 725.67)"  >
<path style="stroke: none; stroke-width: 0; stroke-dasharray: none; stroke-linecap: butt; stroke-dashoffset: 0; stroke-linejoin: miter; stroke-miterlimit: 4; fill: rgb(47,46,67); fill-rule: nonzero; opacity: 1;" vector-effect="non-scaling-stroke"  transform=" translate(-395.98, -391.89)" d="M 383.21163 408.21105 C 381.66159 408.23053 380.23479000000003 408.0554 379.21657 407.88678 C 378.2178 407.71815 377.42656999999997 406.93343 377.25795999999997 405.93464 L 377.25795999999997 405.93464 C 377.12823999999995 405.21476 377.34227 404.49488 377.8157 403.95008 L 384.19741999999997 396.72523 L 391.38334999999995 380.10941 L 391.68814999999995 380.27155000000005 C 391.7983899999999 380.32994 394.47040999999996 381.77619000000004 395.85831999999994 383.02139000000005 C 396.38363999999996 383.49482000000006 396.6495299999999 383.99421000000007 396.6495299999999 384.52603000000005 C 396.6495299999999 384.88922 396.5133199999999 385.1875600000001 396.3771499999999 385.38861 C 396.7598099999999 385.47942 397.7844899999999 385.50534000000005 400.2230399999999 384.44821 C 403.77057999999994 382.90466000000004 402.31783999999993 379.11716 402.25299999999993 378.96796 L 402.20109999999994 378.83824 L 402.2594899999999 378.72150999999997 C 403.16097999999994 376.74994 403.8224799999999 375.69928999999996 404.2051399999999 375.58252 C 404.4515899999999 375.51768 404.84719999999993 375.39446 411.5856299999999 383.91636 C 411.8580099999999 384.14334 413.8425699999999 385.8231 414.6857099999999 388.106 C 415.6001499999999 390.58995 405.60601999999994 395.92100999999997 403.5825499999999 396.96515999999997 C 403.52415999999994 397.01705999999996 393.0760499999999 404.78016999999994 388.7826599999999 407.00469 C 387.0769699999999 407.88671 385.0470099999999 408.17856 383.1986599999999 408.19155 L 383.2181199999999 408.21103 L 383.2116299999999 408.21103 L 383.2116299999999 408.21107 Z" stroke-linecap="round" />
</g>
<g transform="matrix(1 0 0 1 630.24 638.82)"  >
<path style="stroke: none; stroke-width: 0; stroke-dasharray: none; stroke-linecap: butt; stroke-dashoffset: 0; stroke-linejoin: miter; stroke-miterlimit: 4; fill: rgb(47,46,67); fill-rule: nonzero; opacity: 1;" vector-effect="non-scaling-stroke"  transform=" translate(-365.54, -305.05)" d="M 368.17827 224.18528 L 331.21098 224.59387 L 328.24063 259.01886 L 344.33113000000003 385.92692 L 363.20391 385.71289 L 354.8441 312.4074 L 386.19496000000004 378.3324 L 402.83671000000004 366.39908 L 378.24374000000006 304.79989 C 378.24374000000006 304.79989 386.18847000000005 250.81468 379.3268300000001 237.46753 C 372.4716600000001 224.12040000000002 368.1847600000001 224.16578 368.1847600000001 224.16578 L 368.1847600000001 224.18524000000002 L 368.1782700000001 224.18524000000002 L 368.1782700000001 224.18528000000003 Z" stroke-linecap="round" />
</g>
<g transform="matrix(1 0 0 1 621.93 522.32)"  >
<polygon style="stroke: none; stroke-width: 0; stroke-dasharray: none; stroke-linecap: butt; stroke-dashoffset: 0; stroke-linejoin: miter; stroke-miterlimit: 4; fill: rgb(0,117,194); fill-rule: nonzero; opacity: 1;" vector-effect="non-scaling-stroke"  points="29.36,37.54 -29.36,38.2 -12.59,-37.9 13,-38.2 29.36,37.54 " />
</g>
<g transform="matrix(1 0 0 1 645.5 565.67)"  >
<path style="stroke: none; stroke-width: 0; stroke-dasharray: none; stroke-linecap: butt; stroke-dashoffset: 0; stroke-linejoin: miter; stroke-miterlimit: 4; fill: rgb(241,161,164); fill-rule: nonzero; opacity: 1;" vector-effect="non-scaling-stroke"  transform=" translate(-380.79, -231.9)" d="M 392.31726 266.35395 C 393.30307 270.96512 391.63629 275.20017 388.59459999999996 275.81628 C 385.54641 276.43888 382.27773999999994 273.20263 381.29841999999996 268.59143 C 380.87686999999994 266.75605 380.91578 264.84931 381.41515 263.02689 L 368.98895 190.79798999999997 L 383.49052 187.90546999999998 L 389.91762 261.30823999999996 C 391.12391 262.7869299999999 391.94758 264.51856999999995 392.31726 266.36690999999996 L 392.31726 266.36690999999996 L 392.31726 266.35394999999994 Z" stroke-linecap="round" />
</g>
<g transform="matrix(1 0 0 1 637.61 505.78)"  >
<path style="stroke: none; stroke-width: 0; stroke-dasharray: none; stroke-linecap: butt; stroke-dashoffset: 0; stroke-linejoin: miter; stroke-miterlimit: 4; fill: rgb(0,117,194); fill-rule: nonzero; opacity: 1;" vector-effect="non-scaling-stroke"  transform=" translate(-372.91, -172)" d="M 360.31137 150.45175 L 370.23416000000003 150.3415 C 377.25794 151.3273 379.20358000000004 155.04996 380.87685000000005 161.94404 C 383.42564000000004 172.45701 386.68784000000005 186.45918 386.07821000000007 186.67322000000001 C 385.0859300000001 187.01046000000002 368.3014800000001 195.14327000000003 359.66929000000005 193.41813000000002 L 360.32433000000003 150.45176000000004 L 360.31137 150.45176000000004 Z" stroke-linecap="round" />
</g>
<g transform="matrix(0 0 0 0 0 0)"  >
<g style=""   >
</g>
</g>
<g transform="matrix(0 0 0 0 0 0)"  >
<g style=""   >
</g>
</g>
<g transform="matrix(0 0 0 0 0 0)"  >
<g style=""   >
</g>
</g>
<g transform="matrix(0 0 0 0 0 0)"  >
<g style=""   >
</g>
</g>
<g transform="matrix(0 0 0 0 0 0)"  >
<g style=""   >
</g>
</g>
<g transform="matrix(0 0 0 0 0 0)"  >
<g style=""   >
</g>
</g>
<g transform="matrix(0 0 0 0 0 0)"  >
<g style=""   >
</g>
</g>
<g transform="matrix(0 0 0 0 0 0)"  >
<g style=""   >
</g>
</g>
<g transform="matrix(0 0 0 0 0 0)"  >
<g style=""   >
</g>
</g>
<g transform="matrix(0 0 0 0 0 0)"  >
<g style=""   >
</g>
</g>
<g transform="matrix(0 0 0 0 0 0)"  >
<g style=""   >
</g>
</g>
<g transform="matrix(0 0 0 0 0 0)"  >
<g style=""   >
</g>
</g>
<g transform="matrix(0 0 0 0 0 0)"  >
<g style=""   >
</g>
</g>
<g transform="matrix(0 0 0 0 0 0)"  >
<g style=""   >
</g>
</g>
<g transform="matrix(0 0 0 0 0 0)"  >
<g style=""   >
</g>
</g>
<g transform="matrix(NaN NaN NaN NaN 0 0)"  >
<g style=""   >
</g>
</g>
<g transform="matrix(NaN NaN NaN NaN 0 0)"  >
<g style=""   >
</g>
</g>
</svg>